<svg width="28" height="21" viewBox="0 0 28 21" fill="none" xmlns="http://www.w3.org/2000/svg">
<path d="M27.3417 5.77778H23.0139V0.444445C23.0139 0.2 22.8148 0 22.5714 0H21.2436H20.3585H12.9192H11.669H0.442576C0.199159 0 0 0.2 0 0.444445V4.88889V5.77778V8.36667V9.28889V11.1111V13C0 14.5 1 15 2 15C3 15 4.15375 15 4.7703 15V16.8889V18.6667C4.7703 19.8944 5.76057 20.8889 6.98318 20.8889H25.5714C26.794 20.8889 27.7842 19.8944 27.7842 18.6667V16.8889V6.22222C27.7842 5.97222 27.5851 5.77778 27.3417 5.77778ZM4.7703 14C4 14 2.5 14 2 14L1.76966 13.977C1.26758 13.927 0.885152 13.5046 0.885152 13V11.5556H4.7703V14ZM5.21288 5.77778C4.96946 5.77778 4.7703 5.97778 4.7703 6.22222V10.6667H0.885152V8.88889V5.33333V0.888889H20.8011H22.1288V5.77778H20.8137H14.6895H13.4393H10.0812H5.21288ZM26.8991 18.6667C26.8991 19.4 26.3016 20 25.5714 20H6.98318C6.25293 20 5.65546 19.4 5.65546 18.6667V17.3333H18.7225C18.811 17.4667 18.9106 17.5889 19.0102 17.7111C19.0268 17.7278 19.0378 17.7444 19.0544 17.7611C19.143 17.8611 19.237 17.9556 19.3366 18.05C19.3587 18.0667 19.3753 18.0889 19.3974 18.1056C19.5081 18.2 19.6187 18.2944 19.7404 18.3778C19.746 18.3778 19.746 18.3833 19.7515 18.3889C20.006 18.5722 20.2881 18.7222 20.5813 18.8389C20.5979 18.8444 20.6145 18.85 20.6311 18.8556C20.7528 18.9 20.8801 18.9444 21.0128 18.9778C21.046 18.9889 21.0792 18.9944 21.1069 19C21.2231 19.0278 21.3448 19.05 21.4665 19.0667C21.5052 19.0722 21.5384 19.0778 21.5771 19.0833C21.7265 19.1 21.8814 19.1111 22.0363 19.1111C22.1912 19.1111 22.3461 19.1 22.4955 19.0833C22.5342 19.0778 22.5674 19.0722 22.6061 19.0667C22.7278 19.05 22.844 19.0278 22.9657 19C22.9989 18.9944 23.0321 18.9833 23.0597 18.9778C23.187 18.9444 23.3142 18.9 23.4415 18.8556C23.4581 18.85 23.4747 18.8444 23.4913 18.8389C23.79 18.7222 24.0666 18.5722 24.3211 18.3889C24.3266 18.3889 24.3266 18.3833 24.3322 18.3778C24.4539 18.2944 24.5645 18.2 24.6752 18.1056C24.6973 18.0889 24.7139 18.0722 24.736 18.05C24.8356 17.9611 24.9296 17.8611 25.0181 17.7611C25.0347 17.7444 25.0458 17.7278 25.0624 17.7111C25.1675 17.5889 25.2616 17.4667 25.3501 17.3333H26.9102V18.6667H26.8991ZM18.9327 15.1111C18.9327 13.3944 20.3213 12 22.0308 12C23.7402 12 25.1288 13.3944 25.1288 15.1111C25.1288 15.2389 25.1177 15.3611 25.1067 15.4889C25.1011 15.5167 25.0956 15.5444 25.0956 15.5722C25.079 15.6778 25.0624 15.7778 25.0347 15.8778C25.0292 15.9 25.0237 15.9167 25.0181 15.9389C24.9462 16.1889 24.8467 16.4278 24.7194 16.6556C24.7139 16.6611 24.7083 16.6667 24.7083 16.6778C24.6475 16.7889 24.5756 16.8889 24.4981 16.9889C24.4926 17 24.4871 17.0056 24.476 17.0167C24.3156 17.2278 24.1275 17.4111 23.9228 17.5722C23.9172 17.5778 23.9117 17.5833 23.9006 17.5889C23.8011 17.6667 23.6904 17.7389 23.5798 17.8056C23.353 17.9333 23.1151 18.0389 22.8661 18.1056C22.844 18.1111 22.8274 18.1167 22.8053 18.1222C22.7057 18.15 22.6006 18.1667 22.501 18.1833C22.4733 18.1889 22.4457 18.1944 22.418 18.1944C22.2908 18.2111 22.1691 18.2222 22.0418 18.2222C21.9146 18.2222 21.7873 18.2111 21.6656 18.1944C21.638 18.1889 21.6103 18.1833 21.5827 18.1833C21.4775 18.1667 21.378 18.15 21.2784 18.1222C21.2563 18.1167 21.2397 18.1111 21.2175 18.1056C20.9686 18.0333 20.7252 17.9333 20.5039 17.8056C20.3932 17.7389 20.2881 17.6667 20.183 17.5889C20.1775 17.5833 20.1719 17.5778 20.1609 17.5722C19.9562 17.4111 19.7681 17.2278 19.6077 17.0167C19.6021 17.0056 19.5966 17 19.5855 16.9889C19.5081 16.8889 19.4417 16.7889 19.3753 16.6778C19.3698 16.6722 19.3642 16.6667 19.3642 16.6556C19.2315 16.4278 19.1319 16.1889 19.0655 15.9389C19.06 15.9167 19.0544 15.9 19.0489 15.8778C19.0212 15.7778 19.0046 15.6722 18.9881 15.5722C18.9825 15.5444 18.977 15.5167 18.977 15.4889C18.9438 15.3611 18.9327 15.2333 18.9327 15.1111ZM26.8991 16.4444H25.7816C25.7871 16.4278 25.7927 16.4111 25.7982 16.4C25.8203 16.3278 25.8424 16.2611 25.8646 16.1889C25.8756 16.1389 25.8922 16.0889 25.9033 16.0444C25.9199 15.9778 25.9365 15.9111 25.9476 15.8444C25.9586 15.7778 25.9697 15.7111 25.9752 15.6444C25.9808 15.5889 25.9918 15.5389 25.9973 15.4833C26.0084 15.3611 26.0139 15.2333 26.0139 15.1111C26.0139 12.9056 24.227 11.1111 22.0308 11.1111C19.8345 11.1111 18.0476 12.9056 18.0476 15.1111C18.0476 15.2333 18.0531 15.3611 18.0642 15.4833C18.0697 15.5389 18.0752 15.5889 18.0863 15.6444C18.0974 15.7111 18.1029 15.7778 18.114 15.8444C18.125 15.9111 18.1416 15.9778 18.1582 16.0444C18.1693 16.0944 18.1804 16.1444 18.1969 16.1889C18.2191 16.2611 18.2412 16.3333 18.2633 16.4C18.2689 16.4167 18.2744 16.4333 18.2799 16.4444H5.65546V14.6667V11.1111V6.66667H25.5714H26.8991V16.4444Z" fill="white"/>
</svg>
