<svg width="30" height="19" viewBox="0 0 30 19" fill="none" xmlns="http://www.w3.org/2000/svg">
<path d="M7 8C9.20914 8 11 6.20914 11 4C11 1.79086 9.20914 0 7 0C4.79086 0 3 1.79086 3 4C3 6.20914 4.79086 8 7 8Z" fill="white"/>
<path d="M7 8C9.20914 8 11 6.20914 11 4C11 1.79086 9.20914 0 7 0C4.79086 0 3 1.79086 3 4C3 6.20914 4.79086 8 7 8Z" fill="#FF6C00"/>
<path d="M9 9H5C2.2 9 0 11.2 0 14V18C0 18.6 0.4 19 1 19H13C13.6 19 14 18.6 14 18V14C14 11.3 11.8 9 9 9Z" fill="white"/>
<path d="M9 9H5C2.2 9 0 11.2 0 14V18C0 18.6 0.4 19 1 19H13C13.6 19 14 18.6 14 18V14C14 11.3 11.8 9 9 9Z" fill="#FF6C00"/>
<path d="M29 8H17C16.4 8 16 7.6 16 7C16 6.4 16.4 6 17 6H29C29.6 6 30 6.4 30 7C30 7.6 29.6 8 29 8Z" fill="white"/>
<path d="M29 8H17C16.4 8 16 7.6 16 7C16 6.4 16.4 6 17 6H29C29.6 6 30 6.4 30 7C30 7.6 29.6 8 29 8Z" fill="#FF6C00"/>
<path d="M29 12H17C16.4 12 16 11.6 16 11C16 10.4 16.4 10 17 10H29C29.6 10 30 10.4 30 11C30 11.6 29.6 12 29 12Z" fill="white"/>
<path d="M29 12H17C16.4 12 16 11.6 16 11C16 10.4 16.4 10 17 10H29C29.6 10 30 10.4 30 11C30 11.6 29.6 12 29 12Z" fill="#FF6C00"/>
<path d="M23 16H17C16.4 16 16 15.6 16 15C16 14.4 16.4 14 17 14H23C23.6 14 24 14.4 24 15C24 15.6 23.6 16 23 16Z" fill="white"/>
<path d="M23 16H17C16.4 16 16 15.6 16 15C16 14.4 16.4 14 17 14H23C23.6 14 24 14.4 24 15C24 15.6 23.6 16 23 16Z" fill="#FF6C00"/>
</svg>
