<svg width="24" height="20" viewBox="0 0 24 20" fill="none" xmlns="http://www.w3.org/2000/svg">
<path fill-rule="evenodd" clip-rule="evenodd" d="M20 7.00003H2.00002C0.897469 7.00003 0 6.10308 0 5.00002V2.00002C0 0.897 0.897469 4.6875e-05 2.00002 0H20C21.1026 0 22 0.897 22 2.00002V5.00002C22 6.10308 21.1026 7.00003 20 7.00003ZM19 3.50002C19 2.94877 18.5518 2.50003 18 2.50003C17.4482 2.50003 17 2.94877 17 3.50002C17 4.05127 17.4482 4.5 18 4.5C18.5517 4.5 19 4.05127 19 3.50002ZM15 2.50003C15.5518 2.50003 16 2.94877 16 3.50002C16 4.05127 15.5517 4.5 15 4.5C14.4483 4.5 14 4.05127 14 3.50002C14 2.94877 14.4482 2.50003 15 2.50003ZM7.5 2.00002C7.22362 2.00002 6.99998 2.22366 6.99998 2.50003V4.50005C6.99998 4.77642 7.22362 5.00006 7.5 5.00006C7.77637 5.00006 8.00002 4.77642 8.00002 4.50005V2.50003C8.00002 2.22366 7.77637 2.00002 7.5 2.00002ZM5.00002 2.50003C5.00002 2.22366 5.22366 2.00002 5.50003 2.00002C5.77636 2.00002 6 2.22366 6 2.50003V4.50005C6 4.77642 5.77636 5.00006 5.49998 5.00006C5.22361 5.00006 4.99997 4.77642 4.99997 4.50005V2.50003H5.00002ZM3.50002 2.00002C3.22364 2.00002 3 2.22366 3 2.50003V4.50005C3 4.77642 3.22364 5.00006 3.50002 5.00006C3.77639 5.00006 4.00003 4.77642 4.00003 4.50005V2.50003C4.00003 2.22366 3.77639 2.00002 3.50002 2.00002Z" fill="white"/>
<path fill-rule="evenodd" clip-rule="evenodd" d="M20 7.00003H2.00002C0.897469 7.00003 0 6.10308 0 5.00002V2.00002C0 0.897 0.897469 4.6875e-05 2.00002 0H20C21.1026 0 22 0.897 22 2.00002V5.00002C22 6.10308 21.1026 7.00003 20 7.00003ZM19 3.50002C19 2.94877 18.5518 2.50003 18 2.50003C17.4482 2.50003 17 2.94877 17 3.50002C17 4.05127 17.4482 4.5 18 4.5C18.5517 4.5 19 4.05127 19 3.50002ZM15 2.50003C15.5518 2.50003 16 2.94877 16 3.50002C16 4.05127 15.5517 4.5 15 4.5C14.4483 4.5 14 4.05127 14 3.50002C14 2.94877 14.4482 2.50003 15 2.50003ZM7.5 2.00002C7.22362 2.00002 6.99998 2.22366 6.99998 2.50003V4.50005C6.99998 4.77642 7.22362 5.00006 7.5 5.00006C7.77637 5.00006 8.00002 4.77642 8.00002 4.50005V2.50003C8.00002 2.22366 7.77637 2.00002 7.5 2.00002ZM5.00002 2.50003C5.00002 2.22366 5.22366 2.00002 5.50003 2.00002C5.77636 2.00002 6 2.22366 6 2.50003V4.50005C6 4.77642 5.77636 5.00006 5.49998 5.00006C5.22361 5.00006 4.99997 4.77642 4.99997 4.50005V2.50003H5.00002ZM3.50002 2.00002C3.22364 2.00002 3 2.22366 3 2.50003V4.50005C3 4.77642 3.22364 5.00006 3.50002 5.00006C3.77639 5.00006 4.00003 4.77642 4.00003 4.50005V2.50003C4.00003 2.22366 3.77639 2.00002 3.50002 2.00002Z" fill="#FF6C00"/>
<path fill-rule="evenodd" clip-rule="evenodd" d="M15.3897 8.3667C15.4502 8.58303 15.3584 8.813 15.165 8.92873C13.1836 10.1182 12 12.2007 12 14.5C12 14.7764 11.7764 15 11.5 15H2.00002C0.897469 15 0 14.103 0 13V10C0 8.897 0.897469 8 2.00002 8H14.9082C15.1328 8 15.3301 8.14991 15.3897 8.3667ZM3.49997 13C3.77634 13 3.99998 12.7764 3.99998 12.5H4.00003V10.5C4.00003 10.2237 3.77639 10 3.50002 10C3.22364 10 3 10.2237 3 10.5V12.5C3 12.7764 3.22364 13 3.49997 13ZM6 12.5C6 12.7764 5.77636 13 5.49998 13C5.22361 13 4.99997 12.7764 4.99997 12.5V10.5C4.99997 10.2236 5.22361 9.99997 5.49998 9.99997C5.77636 9.99997 6 10.2236 6 10.5V12.5ZM7.5 13C7.77637 13 8.00002 12.7764 8.00002 12.5V10.5C8.00002 10.2236 7.77637 9.99997 7.5 9.99997C7.22362 9.99997 6.99998 10.2236 6.99998 10.5V12.5C6.99998 12.7764 7.22362 13 7.5 13Z" fill="white"/>
<path fill-rule="evenodd" clip-rule="evenodd" d="M15.3897 8.3667C15.4502 8.58303 15.3584 8.813 15.165 8.92873C13.1836 10.1182 12 12.2007 12 14.5C12 14.7764 11.7764 15 11.5 15H2.00002C0.897469 15 0 14.103 0 13V10C0 8.897 0.897469 8 2.00002 8H14.9082C15.1328 8 15.3301 8.14991 15.3897 8.3667ZM3.49997 13C3.77634 13 3.99998 12.7764 3.99998 12.5H4.00003V10.5C4.00003 10.2237 3.77639 10 3.50002 10C3.22364 10 3 10.2237 3 10.5V12.5C3 12.7764 3.22364 13 3.49997 13ZM6 12.5C6 12.7764 5.77636 13 5.49998 13C5.22361 13 4.99997 12.7764 4.99997 12.5V10.5C4.99997 10.2236 5.22361 9.99997 5.49998 9.99997C5.77636 9.99997 6 10.2236 6 10.5V12.5ZM7.5 13C7.77637 13 8.00002 12.7764 8.00002 12.5V10.5C8.00002 10.2236 7.77637 9.99997 7.5 9.99997C7.22362 9.99997 6.99998 10.2236 6.99998 10.5V12.5C6.99998 12.7764 7.22362 13 7.5 13Z" fill="#FF6C00"/>
<path fill-rule="evenodd" clip-rule="evenodd" d="M18.5 9C15.4677 9 13 11.4673 13 14.5C13 17.5327 15.4678 20 18.5 20C21.5322 20 24 17.5327 24 14.5C24 11.4673 21.5322 9 18.5 9ZM15.5005 15L15.5004 15L15.5 15C15.2236 15 15 14.7764 15 14.5C15 12.5703 16.5703 11 18.5 11C19.6645 11 20.7495 11.5766 21.4018 12.543C21.5566 12.7715 21.4966 13.0825 21.2675 13.2368C21.0395 13.3921 20.7275 13.331 20.5737 13.1025C20.1069 12.4121 19.332 12 18.4999 12C17.7862 12 17.1456 12.3043 16.6896 12.7857L17.2236 13.0527C17.3828 13.1323 17.4877 13.291 17.499 13.4687C17.5102 13.647 17.4257 13.8174 17.2773 13.916L15.7773 14.916C15.7725 14.9192 15.7672 14.92 15.7619 14.9208C15.7571 14.9216 15.7522 14.9224 15.7478 14.925C15.6741 14.9681 15.593 14.9993 15.5014 14.9997C15.5014 14.9997 15.5008 15 15.5005 15ZM15.5981 16.457C16.2505 17.4233 17.3354 18 18.5 18C20.4296 18 22 16.4297 22 14.5C22 14.2236 21.7764 14 21.5 14C21.4063 14 21.3235 14.0327 21.2485 14.0775C21.2439 14.0799 21.2405 14.0799 21.2371 14.0798C21.2331 14.0798 21.229 14.0797 21.2227 14.084L19.7227 15.084C19.5743 15.1826 19.4897 15.353 19.501 15.5312C19.5122 15.709 19.6172 15.8677 19.7764 15.9472L20.3104 16.2143C19.8544 16.6956 19.2138 17 18.5 17C17.668 17 16.8931 16.5879 16.4263 15.8975C16.272 15.6684 15.96 15.6084 15.7324 15.7632C15.5034 15.9175 15.4434 16.2285 15.5981 16.457Z" fill="white"/>
<path fill-rule="evenodd" clip-rule="evenodd" d="M18.5 9C15.4677 9 13 11.4673 13 14.5C13 17.5327 15.4678 20 18.5 20C21.5322 20 24 17.5327 24 14.5C24 11.4673 21.5322 9 18.5 9ZM15.5005 15L15.5004 15L15.5 15C15.2236 15 15 14.7764 15 14.5C15 12.5703 16.5703 11 18.5 11C19.6645 11 20.7495 11.5766 21.4018 12.543C21.5566 12.7715 21.4966 13.0825 21.2675 13.2368C21.0395 13.3921 20.7275 13.331 20.5737 13.1025C20.1069 12.4121 19.332 12 18.4999 12C17.7862 12 17.1456 12.3043 16.6896 12.7857L17.2236 13.0527C17.3828 13.1323 17.4877 13.291 17.499 13.4687C17.5102 13.647 17.4257 13.8174 17.2773 13.916L15.7773 14.916C15.7725 14.9192 15.7672 14.92 15.7619 14.9208C15.7571 14.9216 15.7522 14.9224 15.7478 14.925C15.6741 14.9681 15.593 14.9993 15.5014 14.9997C15.5014 14.9997 15.5008 15 15.5005 15ZM15.5981 16.457C16.2505 17.4233 17.3354 18 18.5 18C20.4296 18 22 16.4297 22 14.5C22 14.2236 21.7764 14 21.5 14C21.4063 14 21.3235 14.0327 21.2485 14.0775C21.2439 14.0799 21.2405 14.0799 21.2371 14.0798C21.2331 14.0798 21.229 14.0797 21.2227 14.084L19.7227 15.084C19.5743 15.1826 19.4897 15.353 19.501 15.5312C19.5122 15.709 19.6172 15.8677 19.7764 15.9472L20.3104 16.2143C19.8544 16.6956 19.2138 17 18.5 17C17.668 17 16.8931 16.5879 16.4263 15.8975C16.272 15.6684 15.96 15.6084 15.7324 15.7632C15.5034 15.9175 15.4434 16.2285 15.5981 16.457Z" fill="#FF6C00"/>
</svg>
