<svg width="24" height="24" viewBox="0 0 24 24" fill="none" xmlns="http://www.w3.org/2000/svg">
<path fill-rule="evenodd" clip-rule="evenodd" d="M11.9997 0C5.37252 0 0 5.37281 0 12C0 18.6273 5.37252 24 11.9997 24C17.21 24 21.6451 20.6789 23.3034 16.0384C23.7544 14.7764 24 13.4169 24 12C23.9999 5.37257 18.6268 0 11.9997 0ZM17.3765 17.3765C17.3765 18.1818 16.7238 18.8346 15.9187 18.8346H8.08125C7.27581 18.8346 6.62324 18.1818 6.62324 17.3765V6.62323C6.62324 5.81794 7.27597 5.16521 8.08125 5.16521H14.2327V8.08125H17.3765V17.3765ZM14.8551 5.16505V7.4586H17.3765L14.8551 5.16505Z" fill="white"/>
</svg>
