<svg width="22" height="26" viewBox="0 0 22 26" fill="none" xmlns="http://www.w3.org/2000/svg">
<path d="M21.3274 4.54999H19.2139V21.2643H21.3274V4.54999Z" stroke="#7D8B97" stroke-width="0.35" stroke-miterlimit="10"/>
<path d="M3.5547 0.742859H1.44116V2.78572H3.5547V0.742859Z" fill="#7D8B97" stroke="#7D8B97" stroke-width="0.35" stroke-miterlimit="10"/>
<path d="M20.3667 0.742859H18.2532V2.78572H20.3667V0.742859Z" fill="#7D8B97" stroke="#7D8B97" stroke-width="0.35" stroke-miterlimit="10"/>
<path d="M3.5547 23.0286H1.44116V25.0714H3.5547V23.0286Z" fill="#7D8B97" stroke="#7D8B97" stroke-width="0.35" stroke-miterlimit="10"/>
<path d="M20.3667 23.0286H18.2532V25.0714H20.3667V23.0286Z" fill="#7D8B97" stroke="#7D8B97" stroke-width="0.35" stroke-miterlimit="10"/>
<path d="M3.36244 7.15002H0.960693V8.82145H3.36244V7.15002Z" stroke="#7D8B97" stroke-width="0.35" stroke-miterlimit="10"/>
<path d="M2.59399 1.67145V7.15002H3.36255V8.82145H2.59399V16.9929H3.36255V18.7572H2.59399V24.05H19.2141V1.67145H2.59399Z" stroke="#7D8B97" stroke-width="0.35" stroke-miterlimit="10"/>
<path d="M3.45851 16.9929H0.960693V18.6643H3.45851V16.9929Z" stroke="#7D8B97" stroke-width="0.35" stroke-miterlimit="10"/>
<path d="M16.2966 15.9395C16.1045 15.5681 15.8163 15.2895 15.432 15.1967C15.0477 15.1038 14.6634 15.1038 14.2792 15.2895C13.991 15.4753 13.3185 16.1253 12.742 15.9395C12.4538 15.8467 12.1656 15.661 11.9735 15.3824L10.0521 11.8538C9.85995 11.5753 9.18746 10.6467 9.28353 10.3681C9.3796 10.0895 10.8207 9.81098 11.1089 9.62526C11.8774 9.25383 12.1656 8.32526 11.6853 7.5824L11.0128 6.37526C10.8207 6.00383 10.5324 5.81812 10.1482 5.6324C9.76388 5.53955 9.3796 5.53955 8.99532 5.72526C8.99532 5.72526 7.36214 6.83955 7.07393 7.48955C6.59358 8.60383 6.59358 9.90383 7.17 10.9253L10.9167 17.7038C11.4931 18.7253 12.5499 19.4681 13.7988 19.6538C14.8556 19.7467 16.3927 19.0967 16.3927 19.0967C16.777 18.911 16.9691 18.6324 17.1613 18.261C17.2573 17.8895 17.2573 17.5181 17.0652 17.1467L16.2966 15.9395Z" stroke="#7D8B97" stroke-width="0.35" stroke-miterlimit="10"/>
</svg>
