<svg width="17" height="21" viewBox="0 0 17 21" fill="none" xmlns="http://www.w3.org/2000/svg">
<g clip-path="url(#clip0)">
<path d="M15.4846 2.70381C15.8944 2.70381 16.2164 3.03428 16.2164 3.45488C16.2164 3.87548 15.8944 4.20595 15.4846 4.20595C15.3968 4.20595 15.3382 4.26604 15.3382 4.35617L14.8114 18.957C14.7821 20.0085 13.904 20.8798 12.8795 20.8798H3.51267C2.45891 20.8798 1.61004 20.0085 1.58077 18.957L1.02462 4.35617C1.02462 4.29608 0.966078 4.20595 0.878265 4.20595C0.468468 4.20595 0.146484 3.87548 0.146484 3.45488C0.146484 3.03428 0.468468 2.70381 0.848993 2.70381H4.42008C4.50789 2.70381 4.59571 2.64372 4.59571 2.55359L4.82988 1.68235C5.06405 0.811104 5.94218 0.120117 6.84959 0.120117H9.484C10.3621 0.120117 11.2403 0.781061 11.5037 1.68235L11.7379 2.55359C11.7672 2.64372 11.855 2.70381 11.9428 2.70381H15.4846ZM7.58137 6.90982V17.1244C7.58137 17.4549 7.84481 17.7253 8.1668 17.7253C8.48878 17.7253 8.75222 17.4549 8.75222 17.1244V6.90982C8.75222 6.57934 8.48878 6.30896 8.1668 6.30896C7.84481 6.30896 7.58137 6.57934 7.58137 6.90982ZM4.36154 6.93986L4.65425 17.1544C4.65425 17.4849 4.94696 17.7553 5.26895 17.7253C5.59093 17.7253 5.85437 17.4248 5.8251 17.0944L5.53239 6.87977C5.53239 6.5493 5.23967 6.27892 4.91769 6.30896C4.62498 6.339 4.36154 6.60939 4.36154 6.93986ZM10.8012 6.90982L10.5085 17.1244C10.5085 17.4549 10.7427 17.7253 11.0646 17.7553C11.3866 17.7553 11.6501 17.515 11.6793 17.1845L11.9721 6.9699C11.9721 6.63943 11.7379 6.36904 11.4159 6.339C11.0939 6.30896 10.8305 6.57934 10.8012 6.90982ZM6.2349 2.70381H10.0987C10.1865 2.70381 10.2158 2.64372 10.2158 2.55359L10.0987 2.10295C10.0402 1.86261 9.74744 1.65231 9.51327 1.65231H6.87886C6.64469 1.65231 6.35198 1.89265 6.29344 2.10295L6.14708 2.58364C6.11781 2.64372 6.17635 2.70381 6.2349 2.70381Z" fill="#FF6363"/>
</g>
<defs>
<clipPath id="clip0">
<rect width="16.3333" height="21" fill="white"/>
</clipPath>
</defs>
</svg>
