<svg width="21" height="21" viewBox="0 0 21 21" fill="none" xmlns="http://www.w3.org/2000/svg">
<path d="M10.3514 9.26783C10.1627 9.32264 10.0538 9.51983 10.1083 9.70883C10.1179 9.74194 11.0682 13.1226 10.8066 20.6315C10.7995 20.8283 10.9533 20.9931 11.1497 20.9995C11.154 20.9999 11.1583 20.9999 11.1626 20.9999C11.3533 20.9999 11.511 20.8486 11.5178 20.6564C11.7837 13.0344 10.8326 9.65117 10.7924 9.51093C10.7379 9.32193 10.5411 9.21444 10.3514 9.26783Z" fill="white"/>
<path d="M10.3514 9.26783C10.1627 9.32264 10.0538 9.51983 10.1083 9.70883C10.1179 9.74194 11.0682 13.1226 10.8066 20.6315C10.7995 20.8283 10.9533 20.9931 11.1497 20.9995C11.154 20.9999 11.1583 20.9999 11.1626 20.9999C11.3533 20.9999 11.511 20.8486 11.5178 20.6564C11.7837 13.0344 10.8326 9.65117 10.7924 9.51093C10.7379 9.32193 10.5411 9.21444 10.3514 9.26783Z" fill="#FF6C00"/>
<path d="M19.3015 5.86551C17.7938 2.30256 14.3198 0 10.4508 0C9.17403 0 7.92896 0.249513 6.75045 0.741419C6.09766 1.01371 5.48082 1.33762 4.91701 1.70388C4.75221 1.81137 4.70523 2.0317 4.81237 2.19649C4.91986 2.36129 5.14054 2.40828 5.30499 2.30114C5.83284 1.95802 6.41124 1.6544 7.02452 1.39848C8.11619 0.942524 9.26871 0.711876 10.4508 0.711876C14.0329 0.711876 17.2499 2.84359 18.6455 6.14314C19.2257 7.51492 19.5393 10.0407 19.6746 11.4245C19.6927 11.6086 19.8472 11.7456 20.0284 11.7456C20.0398 11.7456 20.0515 11.7449 20.0636 11.7438C20.259 11.7246 20.4021 11.5506 20.3829 11.3548C20.2131 9.61567 19.8878 7.25117 19.3015 5.86551Z" fill="white"/>
<path d="M19.3015 5.86551C17.7938 2.30256 14.3198 0 10.4508 0C9.17403 0 7.92896 0.249513 6.75045 0.741419C6.09766 1.01371 5.48082 1.33762 4.91701 1.70388C4.75221 1.81137 4.70523 2.0317 4.81237 2.19649C4.91986 2.36129 5.14054 2.40828 5.30499 2.30114C5.83284 1.95802 6.41124 1.6544 7.02452 1.39848C8.11619 0.942524 9.26871 0.711876 10.4508 0.711876C14.0329 0.711876 17.2499 2.84359 18.6455 6.14314C19.2257 7.51492 19.5393 10.0407 19.6746 11.4245C19.6927 11.6086 19.8472 11.7456 20.0284 11.7456C20.0398 11.7456 20.0515 11.7449 20.0636 11.7438C20.259 11.7246 20.4021 11.5506 20.3829 11.3548C20.2131 9.61567 19.8878 7.25117 19.3015 5.86551Z" fill="#FF6C00"/>
<path d="M3.86206 3.45661C4.0023 3.31886 4.00337 3.0932 3.86562 2.95331C3.72787 2.81343 3.50256 2.812 3.36232 2.94975C1.44809 4.83551 -0.458675 8.34257 1.32742 14.3387C1.37334 14.4935 1.51465 14.5932 1.66841 14.5932C1.70187 14.5932 1.73604 14.5882 1.76985 14.5783C1.95815 14.5224 2.06564 14.3241 2.0094 14.1358C0.675701 9.65741 1.31603 5.96491 3.86206 3.45661Z" fill="white"/>
<path d="M3.86206 3.45661C4.0023 3.31886 4.00337 3.0932 3.86562 2.95331C3.72787 2.81343 3.50256 2.812 3.36232 2.94975C1.44809 4.83551 -0.458675 8.34257 1.32742 14.3387C1.37334 14.4935 1.51465 14.5932 1.66841 14.5932C1.70187 14.5932 1.73604 14.5882 1.76985 14.5783C1.95815 14.5224 2.06564 14.3241 2.0094 14.1358C0.675701 9.65741 1.31603 5.96491 3.86206 3.45661Z" fill="#FF6C00"/>
<path d="M10.7244 2.14066C9.6352 2.09831 8.57521 2.29443 7.57325 2.7123C4.08292 4.16844 2.22705 8.00653 3.25678 11.6407C3.35965 12.0041 3.46501 12.3906 3.5216 12.7757C3.64903 13.6474 3.65579 15.2516 3.65579 17.7963C3.65579 17.9931 3.81489 18.1522 4.01173 18.1522C4.20856 18.1522 4.36767 17.9931 4.36767 17.7963C4.36767 15.1417 4.3609 13.5948 4.226 12.6722C4.16336 12.2443 4.05124 11.8322 3.94161 11.4463C3.01012 8.15887 4.68908 4.68633 7.84732 3.36901C8.75425 2.99064 9.7192 2.81873 10.6991 2.85147C13.2302 2.94259 16.099 5.17361 16.9643 7.72391C17.7132 9.93037 17.7196 13.6894 17.6267 17.0748C17.6214 17.2712 17.7766 17.435 17.9731 17.4403C18.166 17.4368 18.3333 17.2912 18.3386 17.094C18.4329 13.6453 18.4233 9.80757 17.6385 7.49469C16.6714 4.64469 13.5697 2.24246 10.7244 2.14066Z" fill="white"/>
<path d="M10.7244 2.14066C9.6352 2.09831 8.57521 2.29443 7.57325 2.7123C4.08292 4.16844 2.22705 8.00653 3.25678 11.6407C3.35965 12.0041 3.46501 12.3906 3.5216 12.7757C3.64903 13.6474 3.65579 15.2516 3.65579 17.7963C3.65579 17.9931 3.81489 18.1522 4.01173 18.1522C4.20856 18.1522 4.36767 17.9931 4.36767 17.7963C4.36767 15.1417 4.3609 13.5948 4.226 12.6722C4.16336 12.2443 4.05124 11.8322 3.94161 11.4463C3.01012 8.15887 4.68908 4.68633 7.84732 3.36901C8.75425 2.99064 9.7192 2.81873 10.6991 2.85147C13.2302 2.94259 16.099 5.17361 16.9643 7.72391C17.7132 9.93037 17.7196 13.6894 17.6267 17.0748C17.6214 17.2712 17.7766 17.435 17.9731 17.4403C18.166 17.4368 18.3333 17.2912 18.3386 17.094C18.4329 13.6453 18.4233 9.80757 17.6385 7.49469C16.6714 4.64469 13.5697 2.24246 10.7244 2.14066Z" fill="#FF6C00"/>
<path d="M10.4506 4.27124C10.0637 4.27124 9.67856 4.31288 9.30518 4.39546C9.11333 4.43782 8.99195 4.62753 9.03431 4.81974C9.07667 5.01159 9.26425 5.13048 9.45859 5.09061C9.78143 5.01942 10.1153 4.98312 10.4502 4.98312C12.3129 4.98312 13.9858 6.09151 14.7115 7.80749C15.5765 9.85057 15.633 13.1298 15.4334 18.8519C15.4262 19.0484 15.58 19.2135 15.7765 19.2199C15.7808 19.2203 15.785 19.2203 15.7893 19.2203C15.9801 19.2203 16.1378 19.069 16.1445 18.8768C16.3524 12.9245 16.289 9.70855 15.3668 7.52985C14.53 5.55048 12.6001 4.27124 10.4506 4.27124Z" fill="white"/>
<path d="M10.4506 4.27124C10.0637 4.27124 9.67856 4.31288 9.30518 4.39546C9.11333 4.43782 8.99195 4.62753 9.03431 4.81974C9.07667 5.01159 9.26425 5.13048 9.45859 5.09061C9.78143 5.01942 10.1153 4.98312 10.4502 4.98312C12.3129 4.98312 13.9858 6.09151 14.7115 7.80749C15.5765 9.85057 15.633 13.1298 15.4334 18.8519C15.4262 19.0484 15.58 19.2135 15.7765 19.2199C15.7808 19.2203 15.785 19.2203 15.7893 19.2203C15.9801 19.2203 16.1378 19.069 16.1445 18.8768C16.3524 12.9245 16.289 9.70855 15.3668 7.52985C14.53 5.55048 12.6001 4.27124 10.4506 4.27124Z" fill="#FF6C00"/>
<path d="M7.80743 5.81504C7.96831 5.70221 8.00747 5.48011 7.89428 5.31922C7.7818 5.15834 7.55934 5.11883 7.39845 5.23237C5.56537 6.51945 4.76878 8.99215 5.41766 11.3883C5.42513 11.4143 6.14769 14.0443 6.14769 18.1526C6.14769 18.3494 6.30679 18.5085 6.50363 18.5085C6.70046 18.5085 6.85956 18.3494 6.85956 18.1526C6.85956 13.9479 6.13416 11.3072 6.10391 11.1993C5.53405 9.0943 6.21888 6.93056 7.80743 5.81504Z" fill="white"/>
<path d="M7.80743 5.81504C7.96831 5.70221 8.00747 5.48011 7.89428 5.31922C7.7818 5.15834 7.55934 5.11883 7.39845 5.23237C5.56537 6.51945 4.76878 8.99215 5.41766 11.3883C5.42513 11.4143 6.14769 14.0443 6.14769 18.1526C6.14769 18.3494 6.30679 18.5085 6.50363 18.5085C6.70046 18.5085 6.85956 18.3494 6.85956 18.1526C6.85956 13.9479 6.13416 11.3072 6.10391 11.1993C5.53405 9.0943 6.21888 6.93056 7.80743 5.81504Z" fill="#FF6C00"/>
<path d="M13.9782 17.0872C13.9796 16.8904 13.8216 16.7302 13.6248 16.7288C13.6241 16.7288 13.623 16.7288 13.6223 16.7288C13.4269 16.7288 13.2678 16.8864 13.2663 17.0822C13.2646 17.3499 13.2735 17.7407 13.2831 18.1628C13.297 18.7768 13.3126 19.4727 13.2973 19.9201C13.2902 20.1166 13.444 20.2814 13.6408 20.2878C13.6451 20.2881 13.649 20.2881 13.6532 20.2881C13.844 20.2881 14.0017 20.1369 14.0085 19.9443C14.0248 19.477 14.0088 18.7701 13.9946 18.1465C13.985 17.7329 13.9764 17.3495 13.9782 17.0872Z" fill="white"/>
<path d="M13.9782 17.0872C13.9796 16.8904 13.8216 16.7302 13.6248 16.7288C13.6241 16.7288 13.623 16.7288 13.6223 16.7288C13.4269 16.7288 13.2678 16.8864 13.2663 17.0822C13.2646 17.3499 13.2735 17.7407 13.2831 18.1628C13.297 18.7768 13.3126 19.4727 13.2973 19.9201C13.2902 20.1166 13.444 20.2814 13.6408 20.2878C13.6451 20.2881 13.649 20.2881 13.6532 20.2881C13.844 20.2881 14.0017 20.1369 14.0085 19.9443C14.0248 19.477 14.0088 18.7701 13.9946 18.1465C13.985 17.7329 13.9764 17.3495 13.9782 17.0872Z" fill="#FF6C00"/>
<path d="M10.4507 6.76294C10.0727 6.76294 9.70397 6.83697 9.35408 6.98291C7.96877 7.56095 7.29569 9.12388 7.78795 10.6185C8.05633 11.4332 8.28306 15.6984 8.28306 19.9323C8.28306 20.1291 8.44217 20.2882 8.639 20.2882C8.83583 20.2882 8.99494 20.1291 8.99494 19.9323C8.99494 16.1213 8.79205 11.3916 8.46459 10.396C8.08943 9.25807 8.59024 8.07315 9.62851 7.63997C9.89084 7.53034 10.1674 7.47482 10.4507 7.47482C11.3103 7.47482 12.0823 7.98666 12.4187 8.78111C13.0832 10.354 13.2808 13.2015 13.3292 15.3136C13.3338 15.5073 13.4922 15.6614 13.6851 15.6614C13.6876 15.6614 13.6908 15.6614 13.6933 15.6614C13.8898 15.6568 14.0453 15.4937 14.0411 15.2973C13.9909 13.1239 13.7827 10.1807 13.0729 8.50134C12.6266 7.44527 11.5972 6.76294 10.4507 6.76294Z" fill="white"/>
<path d="M10.4507 6.76294C10.0727 6.76294 9.70397 6.83697 9.35408 6.98291C7.96877 7.56095 7.29569 9.12388 7.78795 10.6185C8.05633 11.4332 8.28306 15.6984 8.28306 19.9323C8.28306 20.1291 8.44217 20.2882 8.639 20.2882C8.83583 20.2882 8.99494 20.1291 8.99494 19.9323C8.99494 16.1213 8.79205 11.3916 8.46459 10.396C8.08943 9.25807 8.59024 8.07315 9.62851 7.63997C9.89084 7.53034 10.1674 7.47482 10.4507 7.47482C11.3103 7.47482 12.0823 7.98666 12.4187 8.78111C13.0832 10.354 13.2808 13.2015 13.3292 15.3136C13.3338 15.5073 13.4922 15.6614 13.6851 15.6614C13.6876 15.6614 13.6908 15.6614 13.6933 15.6614C13.8898 15.6568 14.0453 15.4937 14.0411 15.2973C13.9909 13.1239 13.7827 10.1807 13.0729 8.50134C12.6266 7.44527 11.5972 6.76294 10.4507 6.76294Z" fill="#FF6C00"/>
</svg>
