<svg width="59" height="59" viewBox="0 0 59 59" fill="none" xmlns="http://www.w3.org/2000/svg">
<g clip-path="url(#clip0)">
<path d="M29.083 26.038C28.553 26.192 28.247 26.746 28.4 27.277C28.427 27.37 31.097 36.868 30.362 57.964C30.342 58.517 30.774 58.98 31.326 58.998C31.338 58.999 31.35 58.999 31.362 58.999C31.898 58.999 32.341 58.574 32.36 58.034C33.107 36.62 30.435 27.115 30.322 26.721C30.169 26.19 29.616 25.888 29.083 26.038Z" fill="#FF6C00"/>
<path d="M54.2281 16.479C49.9921 6.469 40.2321 0 29.3621 0C25.7751 0 22.2771 0.701 18.9661 2.083C17.1321 2.848 15.3991 3.758 13.8151 4.787C13.3521 5.089 13.2201 5.708 13.5211 6.171C13.8231 6.634 14.4431 6.766 14.9051 6.465C16.3881 5.501 18.0131 4.648 19.7361 3.929C22.8031 2.648 26.0411 2 29.3621 2C39.4261 2 48.4641 7.989 52.3851 17.259C54.0151 21.113 54.8961 28.209 55.2761 32.097C55.3271 32.614 55.7611 32.999 56.2701 32.999C56.3021 32.999 56.3351 32.997 56.3691 32.994C56.9181 32.94 57.3201 32.451 57.2661 31.901C56.7891 27.015 55.8751 20.372 54.2281 16.479Z" fill="#FF6C00"/>
<path d="M10.851 9.71097C11.245 9.32397 11.248 8.68997 10.861 8.29697C10.474 7.90397 9.84103 7.89997 9.44703 8.28697C4.06903 13.585 -1.28797 23.438 3.73003 40.284C3.85903 40.719 4.25603 40.999 4.68803 40.999C4.78203 40.999 4.87803 40.985 4.97303 40.957C5.50203 40.8 5.80403 40.243 5.64603 39.714C1.89903 27.132 3.69803 16.758 10.851 9.71097Z" fill="#FF6C00"/>
<path d="M30.13 6.01399C27.07 5.89499 24.092 6.44599 21.277 7.61999C11.471 11.711 6.257 22.494 9.15 32.704C9.439 33.725 9.735 34.811 9.894 35.893C10.252 38.342 10.271 42.849 10.271 49.998C10.271 50.551 10.718 50.998 11.271 50.998C11.824 50.998 12.271 50.551 12.271 49.998C12.271 42.54 12.252 38.194 11.873 35.602C11.697 34.4 11.382 33.242 11.074 32.158C8.457 22.922 13.174 13.166 22.047 9.46499C24.595 8.40199 27.306 7.91899 30.059 8.01099C37.17 8.26699 45.23 14.535 47.661 21.7C49.765 27.899 49.783 38.46 49.522 47.971C49.507 48.523 49.943 48.983 50.495 48.998C51.037 48.988 51.507 48.579 51.522 48.025C51.787 38.336 51.76 27.554 49.555 21.056C46.838 13.049 38.124 6.29999 30.13 6.01399Z" fill="#FF6C00"/>
<path d="M29.3621 12C28.2751 12 27.1931 12.117 26.1441 12.349C25.6051 12.468 25.2641 13.001 25.3831 13.541C25.5021 14.08 26.0291 14.414 26.5751 14.302C27.4821 14.102 28.4201 14 29.3611 14C34.5941 14 39.2941 17.114 41.3331 21.935C43.7631 27.675 43.9221 36.888 43.3611 52.964C43.3411 53.516 43.7731 53.98 44.3251 53.998C44.3371 53.999 44.3491 53.999 44.3611 53.999C44.8971 53.999 45.3401 53.574 45.3591 53.034C45.9431 36.311 45.7651 27.276 43.1741 21.155C40.8231 15.594 35.4011 12 29.3621 12Z" fill="#FF6C00"/>
<path d="M21.9349 16.337C22.3869 16.02 22.4969 15.396 22.1789 14.944C21.8629 14.492 21.2379 14.381 20.7859 14.7C15.6359 18.316 13.3979 25.263 15.2209 31.995C15.2419 32.068 17.2719 39.457 17.2719 50.999C17.2719 51.552 17.7189 51.999 18.2719 51.999C18.8249 51.999 19.2719 51.552 19.2719 50.999C19.2719 39.186 17.2339 31.767 17.1489 31.464C15.5479 25.55 17.4719 19.471 21.9349 16.337Z" fill="#FF6C00"/>
<path d="M39.2721 48.006C39.2761 47.453 38.8321 47.003 38.2791 46.999C38.2771 46.999 38.2741 46.999 38.2721 46.999C37.7231 46.999 37.2761 47.442 37.2721 47.992C37.2671 48.744 37.2921 49.842 37.3191 51.028C37.3581 52.753 37.4021 54.708 37.3591 55.965C37.3391 56.517 37.7711 56.98 38.3241 56.998C38.3361 56.999 38.3471 56.999 38.3591 56.999C38.8951 56.999 39.3381 56.574 39.3571 56.033C39.4031 54.72 39.3581 52.734 39.3181 50.982C39.2911 49.82 39.2671 48.743 39.2721 48.006Z" fill="#FF6C00"/>
<path d="M29.3621 19C28.3001 19 27.2641 19.208 26.2811 19.618C22.3891 21.242 20.4981 25.633 21.8811 29.832C22.6351 32.121 23.2721 44.104 23.2721 55.999C23.2721 56.552 23.7191 56.999 24.2721 56.999C24.8251 56.999 25.2721 56.552 25.2721 55.999C25.2721 45.292 24.7021 32.004 23.7821 29.207C22.7281 26.01 24.1351 22.681 27.0521 21.464C27.7891 21.156 28.5661 21 29.3621 21C31.7771 21 33.9461 22.438 34.8911 24.67C36.7581 29.089 37.3131 37.089 37.4491 43.023C37.4621 43.567 37.9071 44 38.4491 44C38.4561 44 38.4651 44 38.4721 44C39.0241 43.987 39.4611 43.529 39.4491 42.977C39.3081 36.871 38.7231 28.602 36.7291 23.884C35.4751 20.917 32.5831 19 29.3621 19Z" fill="#FF6C00"/>
</g>
<defs>
<clipPath id="clip0">
<rect width="58.999" height="58.999" fill="white"/>
</clipPath>
</defs>
</svg>
