<svg width="22" height="22" viewBox="0 0 22 22" fill="none" xmlns="http://www.w3.org/2000/svg">
<path d="M9.42857 0.0685714C9.32572 0.0685714 9.25714 0.102857 9.18857 0.171429C9.12 0.24 9.08572 0.308571 9.05143 0.411428L8.57143 3.39429L8.36572 3.42857C8.02286 3.53143 7.68 3.66857 7.37143 3.84L7.16572 3.94286L4.73143 2.19429C4.69714 2.16 4.66286 2.16 4.62857 2.12571C4.49143 2.09143 4.35429 2.12571 4.25143 2.22857L2.19429 4.28571C2.05714 4.42286 2.05714 4.62857 2.16 4.76571L2.22857 4.86857L2.84571 5.72571L3.90857 7.23429L3.80572 7.44C3.63429 7.74857 3.49714 8.09143 3.39429 8.43429L3.32571 8.64L0.342857 9.12C0.205714 9.15429 0.102857 9.25714 0.0342857 9.36C0.0342857 9.39429 0 9.42857 0 9.49714V12.4457C0 12.6171 0.137143 12.7886 0.308571 12.8229L3.29143 13.3029L3.36 13.5086C3.46286 13.8514 3.6 14.1943 3.77143 14.5029L3.87429 14.7086L2.12571 17.1429C2.02286 17.28 2.02286 17.4857 2.16 17.6229L4.21714 19.68C4.35429 19.8171 4.56 19.8171 4.69714 19.7143L7.13143 17.9657L7.33714 18.0686C7.64572 18.24 7.98857 18.3771 8.33143 18.48L8.53714 18.5486L9.01714 21.5314C9.05143 21.7029 9.18857 21.84 9.39429 21.84H12.3429C12.5143 21.84 12.6857 21.7029 12.72 21.5314L13.2 18.5486L13.4057 18.48C13.7486 18.3771 14.0914 18.24 14.4 18.0686L14.6057 17.9657L17.04 19.7143C17.1771 19.8171 17.3829 19.8171 17.52 19.68L19.5771 17.6229C19.7143 17.4857 19.7143 17.28 19.6114 17.1429L17.8629 14.7086L17.9657 14.5029C18.1371 14.1943 18.2743 13.8514 18.3771 13.5086L18.4457 13.3029L21.4286 12.8229C21.6 12.7886 21.7371 12.6514 21.7371 12.4457V9.49714C21.7371 9.46286 21.7371 9.39429 21.7029 9.36C21.7029 9.32571 21.6686 9.29143 21.6343 9.25714C21.5657 9.18857 21.4971 9.15429 21.3943 9.12L18.4114 8.64L18.4457 8.43429C18.3429 8.09143 18.2057 7.74857 18.0343 7.44L17.9314 7.23429L18.9943 5.72571L19.6114 4.86857L19.68 4.76571C19.7143 4.73143 19.7143 4.69714 19.7486 4.62857C19.7829 4.49143 19.7486 4.35429 19.6457 4.25143L17.5543 2.19429C17.52 2.16 17.4857 2.12571 17.4514 2.12571C17.3143 2.05714 17.1771 2.09143 17.0743 2.16L14.64 3.90857L14.4343 3.80571C14.1257 3.63429 13.7829 3.49714 13.44 3.39429L13.2343 3.32571L12.7543 0.342857C12.7543 0.24 12.6857 0.171429 12.6171 0.102857C12.5829 0.0685714 12.5486 0.0685714 12.5143 0.0342857C12.48 0.0342857 12.4457 0 12.3771 0L9.42857 0.0685714ZM9.77143 0.857143H12.0686L12.5486 3.73714C12.5829 3.87429 12.6857 4.01143 12.8229 4.04571C13.4057 4.21714 13.9543 4.42286 14.4686 4.73143C14.5029 4.76571 14.5371 4.76571 14.5714 4.76571C14.6057 4.76571 14.64 4.76571 14.6743 4.76571C14.7086 4.76571 14.7429 4.76571 14.7771 4.73143C14.8114 4.73143 14.8457 4.69714 14.88 4.69714L17.2457 2.98286L18.8571 4.59429L17.1429 6.99429C17.04 7.13143 17.04 7.26857 17.1086 7.40571C17.4171 7.92 17.6229 8.46857 17.7943 9.05143C17.8286 9.15429 17.8971 9.25714 18 9.29143C18.0343 9.29143 18.0686 9.32571 18.1029 9.32571L20.9829 9.80571V12.1029L18.1029 12.5829C17.9657 12.6171 17.8286 12.72 17.7943 12.8571C17.6229 13.44 17.4171 13.9886 17.1086 14.5029C17.04 14.64 17.04 14.7771 17.1429 14.9143L18.8571 17.3143L17.2457 18.9257L14.8457 17.2114C14.7086 17.1086 14.5714 17.1086 14.4343 17.1771C13.92 17.4857 13.3714 17.6914 12.7886 17.8629C12.6514 17.8971 12.5486 18.0343 12.5143 18.1714L12.0343 21.0514H9.73714L9.25714 18.1714C9.22286 18.0343 9.12 17.8971 8.98286 17.8629C8.4 17.6914 7.85143 17.4857 7.33714 17.1771C7.2 17.1086 7.06286 17.1086 6.92572 17.2114L4.52572 18.9257L2.91429 17.3143L4.62857 14.9143C4.73143 14.7771 4.73143 14.64 4.66286 14.5029C4.35429 13.9886 4.14857 13.44 3.97714 12.8571C3.94286 12.72 3.80572 12.6171 3.66857 12.5829L0.788572 12.1029V9.80571L3.66857 9.32571C3.70286 9.32571 3.73714 9.29143 3.77143 9.29143C3.87429 9.25714 3.94286 9.15429 3.97714 9.05143C4.14857 8.46857 4.35429 7.92 4.66286 7.40571C4.73143 7.26857 4.73143 7.13143 4.62857 6.99429L2.91429 4.59429L4.52572 2.98286L6.89143 4.69714C6.92571 4.73143 6.96 4.73143 6.99429 4.73143C7.02857 4.73143 7.06286 4.76571 7.09714 4.76571C7.13143 4.76571 7.16572 4.76571 7.2 4.76571C7.23429 4.76571 7.26857 4.73143 7.30286 4.73143C7.81714 4.42286 8.36572 4.21714 8.94857 4.04571C9.08572 4.01143 9.18857 3.87429 9.22286 3.73714L9.66857 1.13143L9.77143 0.857143ZM10.9029 5.93143C9.15429 5.93143 7.64572 6.82286 6.75429 8.16C6.58286 8.43429 6.41143 8.70857 6.27429 9.01714C6.03429 9.63428 5.86286 10.2857 5.86286 10.9714C5.86286 11.1429 5.86286 11.28 5.89714 11.4514C6.10286 13.68 7.78286 15.4971 9.97714 15.9086C10.1143 15.9429 10.2857 15.9771 10.4229 15.9771C10.3543 15.9771 10.3543 15.9771 10.4229 15.9771C10.56 15.9771 10.7314 16.0114 10.9029 16.0114C10.9029 16.0114 10.9371 16.0114 10.9714 16.0114C11.1086 16.0114 11.2457 16.0114 11.3486 15.9771C11.4857 15.9771 11.6571 15.9429 11.7943 15.9086C13.9543 15.4971 15.6686 13.68 15.8743 11.4514C15.8743 11.28 15.9086 11.1429 15.9086 10.9714C15.9086 10.2857 15.7714 9.63428 15.4971 9.01714C15.36 8.70857 15.2229 8.43429 15.0171 8.16C14.9143 8.02286 14.8457 7.92 14.7429 7.78286C14.4343 7.40571 14.0914 7.09714 13.68 6.82286C13.4057 6.65143 13.1314 6.48 12.8229 6.37714C12.5143 6.24 12.2057 6.13714 11.8971 6.06857C11.7257 6.03429 11.5543 6 11.4171 6C11.2457 5.96571 11.0743 5.93143 10.9029 5.93143ZM10.9029 6.72C11.04 6.72 11.1771 6.72 11.3143 6.75429H11.3486C11.4857 6.75429 11.5886 6.78857 11.7257 6.82286H11.76C11.8629 6.85714 12 6.89143 12.1029 6.92571H12.1371C12.24 6.96 12.3429 6.99429 12.4457 7.02857L12.5143 7.06286C12.6171 7.09714 12.72 7.16571 12.7886 7.2L12.8571 7.23429C12.96 7.26857 13.0286 7.33714 13.0971 7.37143L13.2 7.44C13.2686 7.50857 13.3371 7.54286 13.4057 7.61143L13.5086 7.68C13.6114 7.78286 13.7143 7.85143 13.8171 7.95429C13.92 8.05714 13.9886 8.12571 14.0571 8.22857C14.6743 8.94857 15.0171 9.90857 15.0171 10.9371C15.0171 11.1429 15.0171 11.3143 14.9829 11.52C14.7429 13.2343 13.5086 14.64 11.8286 15.0857C11.6571 15.12 11.52 15.1543 11.3486 15.1886C11.3486 15.1886 11.3143 15.1886 11.28 15.1886C11.1086 15.2229 10.9371 15.2229 10.7657 15.2229C10.5943 15.2229 10.4229 15.2229 10.2514 15.1886C10.2171 15.1886 10.1829 15.1886 10.1829 15.1886C10.0114 15.1543 9.87429 15.12 9.70286 15.0857C8.05714 14.64 6.78857 13.2686 6.54857 11.52C6.51429 11.3486 6.51429 11.1429 6.51429 10.9371C6.51429 9.90857 6.89143 8.94857 7.47429 8.22857C7.54286 8.12571 7.64572 8.02286 7.71429 7.95429C8.67429 7.2 9.73714 6.72 10.9029 6.72Z" fill="white"/>
</svg>
