<svg width="20" height="17" viewBox="0 0 20 17" fill="none" xmlns="http://www.w3.org/2000/svg">
<path d="M0 1.5C0 0.671573 0.671573 0 1.5 0H18.5C19.3284 0 20 0.671573 20 1.5C20 2.32843 19.3284 3 18.5 3H1.5C0.671573 3 0 2.32843 0 1.5Z" fill="white"/>
<path d="M0 8.5C0 7.67157 0.671573 7 1.5 7H18.5C19.3284 7 20 7.67157 20 8.5C20 9.32843 19.3284 10 18.5 10H1.5C0.671573 10 0 9.32843 0 8.5Z" fill="white"/>
<path d="M0 15.5C0 14.6716 0.671573 14 1.5 14H18.5C19.3284 14 20 14.6716 20 15.5C20 16.3284 19.3284 17 18.5 17H1.5C0.671573 17 0 16.3284 0 15.5Z" fill="white"/>
</svg>
