<svg width="45" height="47" viewBox="0 0 45 47" fill="none" xmlns="http://www.w3.org/2000/svg">
<path d="M23.7927 3.04937L21.5293 0.784668L19.2507 3.06192L20.2707 4.08247L3.15426 23.7235L2.43112 23L0.152588 25.2773L2.41602 27.542L4.69455 25.2647L3.40227 23.9717L20.5187 4.33061L20.88 4.69215L8.09828 34.8205L7.27829 34L4.99976 36.2773L7.26319 38.542L9.54172 36.2647L8.36519 35.0875L21.1469 4.9592L21.3524 5.16481L21.3421 41.9722L19.239 44.0741L21.5024 46.3388L23.781 44.0616L21.6921 41.9715L21.7025 5.13844L21.8992 4.94183L34.6045 35.057L33.3835 36.2773L35.647 38.542L37.9255 36.2647L35.6621 34L34.8717 34.7899L22.1664 4.67478L22.5487 4.29264L40.701 24.327L39.7502 25.2773L42.0137 27.542L44.2922 25.2647L42.0288 23L40.9489 24.0793L22.7966 4.04493L23.7927 3.04937Z" fill="#FF6C00"/>
</svg>
