<svg width="50" height="48" viewBox="0 0 50 48" fill="none" xmlns="http://www.w3.org/2000/svg">
<path fill-rule="evenodd" clip-rule="evenodd" d="M25 0L27.2634 2.2647L26.3876 3.14003L45.9736 22.726L47 21.7002L49.2634 23.9649L46.9849 26.2422L45.9955 25.2522L26.8733 44.3744L27.2634 44.7647L24.9849 47.042L22.7214 44.7773L23.1257 44.3732L3.99002 25.2376L2.98487 26.2422L0.721436 23.9774L2.99997 21.7002L4.02588 22.7267L23.5981 3.15444L22.7214 2.27725L25 0ZM23.8455 3.402L4.2733 22.9742L5.2634 23.9649L4.23758 24.9901L23.3732 44.1258L25 42.5L26.6259 44.1268L45.7481 25.0046L44.7214 23.9774L45.726 22.9734L26.14 3.38745L24.9849 4.54196L23.8455 3.402Z" fill="#FF6C00"/>
</svg>
