<svg width="16" height="21" viewBox="0 0 16 21" fill="none" xmlns="http://www.w3.org/2000/svg">
<g clip-path="url(#clip0)">
<path d="M15.75 1.44721V20.3226C15.75 20.6613 15.4774 20.9384 15.1442 20.9384H0.605769C0.272596 20.9384 0 20.6613 0 20.3226V1.44721L1.93846 6.98974C2.15048 7.57478 2.72596 8.00587 3.33173 8.00587H7.26923V9.02199C6.5726 9.26833 6.05769 9.94575 6.05769 10.7771C6.05769 11.7933 6.87548 12.6246 7.875 12.6246C8.87452 12.6246 9.69231 11.7933 9.69231 10.7771C9.69231 9.97654 9.1774 9.29912 8.48077 9.02199V8.00587H12.4183C13.024 8.00587 13.5995 7.57478 13.8115 7.02053L15.75 1.44721ZM0.7875 0H14.9928L12.6606 6.58944C12.6303 6.68182 12.5091 6.77419 12.4183 6.77419H8.48077V5.75807C9.1774 5.51173 9.69231 4.83431 9.69231 4.00293C9.69231 2.9868 8.87452 2.15543 7.875 2.15543C6.87548 2.15543 6.05769 2.9868 6.05769 4.00293C6.05769 4.80352 6.5726 5.48094 7.26923 5.75807V6.77419H3.33173C3.24087 6.77419 3.11971 6.68182 3.08942 6.58944L0.7875 0ZM7.875 4.61877C7.54183 4.61877 7.26923 4.34164 7.26923 4.00293C7.26923 3.66422 7.54183 3.3871 7.875 3.3871C8.20817 3.3871 8.48077 3.66422 8.48077 4.00293C8.48077 4.34164 8.20817 4.61877 7.875 4.61877ZM7.875 11.393C7.54183 11.393 7.26923 11.1158 7.26923 10.7771C7.26923 10.4384 7.54183 10.1613 7.875 10.1613C8.20817 10.1613 8.48077 10.4384 8.48077 10.7771C8.48077 11.1158 8.20817 11.393 7.875 11.393Z" fill="white"/>
<path d="M15.75 1.44721V20.3226C15.75 20.6613 15.4774 20.9384 15.1442 20.9384H0.605769C0.272596 20.9384 0 20.6613 0 20.3226V1.44721L1.93846 6.98974C2.15048 7.57478 2.72596 8.00587 3.33173 8.00587H7.26923V9.02199C6.5726 9.26833 6.05769 9.94575 6.05769 10.7771C6.05769 11.7933 6.87548 12.6246 7.875 12.6246C8.87452 12.6246 9.69231 11.7933 9.69231 10.7771C9.69231 9.97654 9.1774 9.29912 8.48077 9.02199V8.00587H12.4183C13.024 8.00587 13.5995 7.57478 13.8115 7.02053L15.75 1.44721ZM0.7875 0H14.9928L12.6606 6.58944C12.6303 6.68182 12.5091 6.77419 12.4183 6.77419H8.48077V5.75807C9.1774 5.51173 9.69231 4.83431 9.69231 4.00293C9.69231 2.9868 8.87452 2.15543 7.875 2.15543C6.87548 2.15543 6.05769 2.9868 6.05769 4.00293C6.05769 4.80352 6.5726 5.48094 7.26923 5.75807V6.77419H3.33173C3.24087 6.77419 3.11971 6.68182 3.08942 6.58944L0.7875 0ZM7.875 4.61877C7.54183 4.61877 7.26923 4.34164 7.26923 4.00293C7.26923 3.66422 7.54183 3.3871 7.875 3.3871C8.20817 3.3871 8.48077 3.66422 8.48077 4.00293C8.48077 4.34164 8.20817 4.61877 7.875 4.61877ZM7.875 11.393C7.54183 11.393 7.26923 11.1158 7.26923 10.7771C7.26923 10.4384 7.54183 10.1613 7.875 10.1613C8.20817 10.1613 8.48077 10.4384 8.48077 10.7771C8.48077 11.1158 8.20817 11.393 7.875 11.393Z" fill="#FF6C00"/>
</g>
<defs>
<clipPath id="clip0">
<rect width="15.75" height="21" fill="white"/>
</clipPath>
</defs>
</svg>
