<svg width="30" height="40" viewBox="0 0 30 40" fill="none" xmlns="http://www.w3.org/2000/svg">
<path d="M4.36594 0.75708H1.16406V3.97851H4.36594V0.75708Z" fill="white" stroke="white" stroke-width="0.35" stroke-miterlimit="10"/>
<path d="M4.36594 35.9H1.16406V39.1214H4.36594V35.9Z" fill="white" stroke="white" stroke-width="0.35" stroke-miterlimit="10"/>
<path d="M29.2019 35.9H26V39.1214H29.2019V35.9Z" fill="white" stroke="white" stroke-width="0.35" stroke-miterlimit="10"/>
<path d="M14.9905 15.6928V2.22137H2.76514V37.5107H27.9435V15.6928H14.9905Z" stroke="white" stroke-width="0.35" stroke-miterlimit="10"/>
<path d="M22 4.99994V10.9379" stroke="white" stroke-width="0.35" stroke-miterlimit="10" stroke-linecap="round"/>
<path d="M18.9999 7.99998L21.9999 10.9999" stroke="white" stroke-width="0.35" stroke-miterlimit="10" stroke-linecap="round"/>
<path d="M22 11.0679L24.7887 7.99996" stroke="white" stroke-width="0.35" stroke-miterlimit="10" stroke-linecap="round"/>
<path d="M13.2227 26.9335C13.2227 27.5768 13.0755 28.095 12.7812 28.4882C12.487 28.8814 12.0885 29.0781 11.5859 29.0781C11.0729 29.0781 10.6693 28.9153 10.375 28.5898V30.6249H9.65234V24.7734H10.3125L10.3477 25.2421C10.6419 24.8775 11.0508 24.6953 11.5742 24.6953C12.082 24.6953 12.4831 24.8867 12.7773 25.2695C13.0742 25.6523 13.2227 26.1848 13.2227 26.8671V26.9335ZM12.5 26.8515C12.5 26.3749 12.3984 25.9986 12.1953 25.7226C11.9922 25.4466 11.7135 25.3085 11.3594 25.3085C10.9219 25.3085 10.5938 25.5025 10.375 25.8906V27.9101C10.5911 28.2955 10.9219 28.4882 11.3672 28.4882C11.7135 28.4882 11.9883 28.3515 12.1914 28.0781C12.3971 27.802 12.5 27.3932 12.5 26.8515ZM13.9688 26.8515C13.9688 26.2031 14.1224 25.6822 14.4297 25.289C14.737 24.8932 15.1393 24.6953 15.6367 24.6953C16.1315 24.6953 16.5234 24.8645 16.8125 25.2031V22.9999H17.5352V28.9999H16.8711L16.8359 28.5468C16.5469 28.901 16.1445 29.0781 15.6289 29.0781C15.1393 29.0781 14.7396 28.8775 14.4297 28.4765C14.1224 28.0755 13.9688 27.552 13.9688 26.9062V26.8515ZM14.6914 26.9335C14.6914 27.4127 14.7904 27.7877 14.9883 28.0585C15.1862 28.3294 15.4596 28.4648 15.8086 28.4648C16.2669 28.4648 16.6016 28.2591 16.8125 27.8476V25.9062C16.5964 25.5078 16.2643 25.3085 15.8164 25.3085C15.4622 25.3085 15.1862 25.4453 14.9883 25.7187C14.7904 25.9921 14.6914 26.3971 14.6914 26.9335ZM19.0156 28.9999V25.332H18.3477V24.7734H19.0156V24.3398C19.0156 23.8867 19.1367 23.5364 19.3789 23.289C19.6211 23.0416 19.9635 22.9179 20.4062 22.9179C20.5729 22.9179 20.7383 22.94 20.9023 22.9843L20.8633 23.5703C20.7409 23.5468 20.6107 23.5351 20.4727 23.5351C20.2383 23.5351 20.0573 23.6041 19.9297 23.7421C19.8021 23.8775 19.7383 24.0729 19.7383 24.3281V24.7734H20.6406V25.332H19.7383V28.9999H19.0156Z" fill="white"/>
</svg>
