<svg width="34" height="34" viewBox="0 0 34 34" fill="none" xmlns="http://www.w3.org/2000/svg">
<path d="M8.13571 17.85H9.71429V19.4286H11.2929V21.0071H3.27857V19.4286H4.85714V16.15H8.13571V17.85ZM29.1429 32.3H30.7214V30.7214H29.1429V32.3ZM9.71429 17.85H11.2929V16.2714H9.71429V17.85ZM32.4214 32.3H34V30.7214H32.4214V32.3ZM12.9929 34H16.2714V32.4214H12.9929C12.9929 32.3 12.9929 34 12.9929 34ZM27.5643 34V32.4214H25.9857V34H27.5643ZM21.0071 34H22.5857V30.7214H21.0071V34ZM8.13571 12.9929V14.5714H12.9929V12.9929H8.13571ZM6.55714 14.5714V12.9929H3.27857V16.2714H4.85714V14.5714H6.55714ZM11.4143 11.2929H0V0H11.2929V11.2929H11.4143ZM9.71429 1.7H1.7V9.71429H9.71429V1.7ZM3.27857 30.7214H8.13571V25.8643H3.27857V30.7214ZM19.4286 29.1429V30.7214H21.0071V29.1429H19.4286ZM8.13571 3.27857H3.27857V8.13571H8.13571V3.27857ZM34 0V11.2929H22.7071V0H34ZM32.4214 1.7H24.2857V9.71429H32.4214V1.7ZM0 22.5857H11.2929V34H0V22.5857ZM1.7 32.3H9.71429V24.2857H1.7V32.3ZM1.7 12.9929H0V21.1286H1.57857V12.9929H1.7ZM22.7071 21.0071V22.5857H24.2857V21.0071H22.7071ZM17.85 27.4429V25.8643H16.2714V27.4429H12.9929V30.7214H16.2714V32.3H17.85V29.1429H19.4286V27.5643L17.85 27.4429ZM12.9929 6.43571H16.2714V4.85714H12.9929V6.43571ZM25.8643 19.4286H29.1429V21.0071H30.7214V16.15H29.1429V12.8714H27.5643V17.7286H22.7071V19.4286H24.2857V21.0071H25.8643V19.4286ZM27.5643 24.2857H25.9857V22.7071H24.2857V25.9857H19.4286V27.5643H22.7071V30.8429H24.2857V32.4214H25.8643V29.1429H32.3V27.5643H27.4429L27.5643 24.2857ZM27.5643 24.2857H29.1429V21.0071H27.5643V24.2857ZM14.5714 24.2857V22.7071H16.15V21.1286H17.7286V19.4286H19.4286V16.15H24.2857V12.8714H22.7071V14.5714H21.1286V8.13571H19.4286V4.85714H21.0071V0H19.4286V3.27857H17.85V0H12.9929V3.27857H14.5714V1.57857H16.15V4.85714H17.7286V9.71429H19.4286V11.2929H17.85V14.5714H16.2714V11.2929H14.5714V9.71429H12.9929V12.9929H14.5714V14.5714H12.9929V19.4286H14.5714V16.15H16.15V19.4286H14.5714V21.0071H12.9929V25.8643H16.2714V24.2857H14.5714ZM32.4214 25.8643V24.2857H29.1429V25.8643H32.4214ZM30.7214 3.27857H25.8643V8.13571H30.7214V3.27857ZM17.85 24.2857H21.1286V22.7071H19.4286V21.1286H17.85V24.2857ZM21.0071 21.0071V19.4286H19.4286V21.0071H21.0071ZM30.7214 14.5714H34V12.9929H30.7214V14.5714ZM32.4214 27.4429H34V25.8643H32.4214V27.4429ZM32.4214 17.85H34V16.2714H32.4214V17.85ZM17.85 9.71429H16.2714V11.2929H17.85V9.71429Z" fill="white"/>
</svg>
