<svg width="24" height="27" viewBox="0 0 24 27" fill="none" xmlns="http://www.w3.org/2000/svg">
<path d="M19.9496 4.27765C14.7779 -0.893095 6.30469 -1.23606 0.923355 3.32388V0.682245H0V4.37556C0 4.63037 0.206848 4.83721 0.461652 4.83721H4.15502V3.91391H1.65909C6.68834 -0.222903 14.5055 0.138377 19.2967 4.93051C24.3363 9.97006 24.3363 18.172 19.2967 23.2116L19.9496 23.8644C25.3501 18.4647 25.3501 9.67735 19.9496 4.27765Z" fill="white"/>
<path d="M14 24H16V26H14V24Z" fill="white"/>
<path d="M8 25H10V27H8V25Z" fill="white"/>
<path d="M2 23H4V25H2V23Z" fill="white"/>
</svg>
