<svg width="33" height="43" viewBox="0 0 33 43" fill="none" xmlns="http://www.w3.org/2000/svg">
<path d="M15.7886 16.175C15.6919 16.175 15.6136 16.0966 15.6136 16L15.6136 1.52069L13.1294 4.25361C13.0644 4.32513 12.9537 4.33041 12.8822 4.2654C12.8107 4.20039 12.8054 4.08971 12.8704 4.01819L15.6136 1.00034C15.6136 0.903688 15.6919 0.824997 15.7886 0.824997C15.8852 0.824997 15.9636 0.903347 15.9636 0.999997V1.06325L18.9124 4.01207C18.9808 4.08042 18.9808 4.19122 18.9124 4.25956C18.8441 4.3279 18.7333 4.3279 18.6649 4.25956L15.9636 1.55823L15.9636 16C15.9636 16.0966 15.8852 16.175 15.7886 16.175Z" fill="white"/>
<path d="M0 10H3.20188V11.325H10.5V11.675H3.20188V13.2214H1.675V39H3.20188V40.325H29V39H30.325V13.2214H29V11.675H21V11.325H29V10H32.2019V13.2214H30.675V39H32.2019V42.2214H29V40.675H3.20188V42.2214H0V39H1.325V13.2214H0V10Z" fill="white"/>
</svg>
