<svg width="29" height="22" viewBox="0 0 29 22" fill="none" xmlns="http://www.w3.org/2000/svg">
<g>
<path d="M23.6001 0.299988H5.6001V2.49999H23.6001V0.299988Z" stroke="#7D8B97" stroke-miterlimit="10"/>
<path d="M3.09995 1.90002H1.69995V3.30002H3.09995V1.90002Z" fill="#7D8B97" stroke="#7D8B97" stroke-miterlimit="10"/>
<path d="M27.4 1.90002H26V3.30002H27.4V1.90002Z" fill="#7D8B97" stroke="#7D8B97" stroke-miterlimit="10"/>
<path d="M20.7999 10.7H19.3999V12.1H20.7999V10.7Z" fill="#7D8B97" stroke="#7D8B97" stroke-miterlimit="10"/>
<path d="M3.09995 19.7H1.69995V21.1H3.09995V19.7Z" fill="#7D8B97" stroke="#7D8B97" stroke-miterlimit="10"/>
<path d="M27.4 19.7H26V21.1H27.4V19.7Z" fill="#7D8B97" stroke="#7D8B97" stroke-miterlimit="10"/>
<path d="M19.8 14.2C18.2 14.2 17 12.9 17 11.4C17 9.89997 18.3 8.59998 19.8 8.59998H26.9V2.59998H2.5V20.4H26.8V14.2H19.8Z" stroke="#7D8B97" stroke-miterlimit="10"/>
<path d="M26.2 8.5H27.7V14.2H26.2" stroke="#7D8B97" stroke-miterlimit="10"/>
</g>
</svg>
